<svg xmlns="http://www.w3.org/2000/svg" width="109.6" height="32" viewBox="0 0 109.6 32"><g transform="translate(4.5 7.612)"><path d="M15.254-54.061a6.247,6.247,0,0,1-.5,2.526,4.1,4.1,0,0,1-1.633,1.858,5.415,5.415,0,0,1-2.917.71A6.752,6.752,0,0,1,8.074-49.3a6.7,6.7,0,0,1-1.889-.981l.887-1.346a6.257,6.257,0,0,0,1.592.762,5.256,5.256,0,0,0,1.487.219,2.8,2.8,0,0,0,2.233-.924,3.792,3.792,0,0,0,.8-2.573v-7.817H8.9V-63.6h6.356Z" transform="translate(-6.185 63.6)" fill="#d8d8d8"/><path d="M20.353-48.992H11.862V-63.6h2.11v12.785h6.615Z" transform="translate(10.337 63.6)" fill="#d8d8d8"/><path d="M2.852-23.109a.391.391,0,0,1-.289-.114.391.391,0,0,1-.114-.289v-.525a1.026,1.026,0,0,1,.437-.77L6.7-28.6a10.864,10.864,0,0,0,1.785-1.8,2.549,2.549,0,0,0,.49-1.487A2.206,2.206,0,0,0,8.4-33.512a2.255,2.255,0,0,0-1.68-.586,2.246,2.246,0,0,0-1.662.612A2.775,2.775,0,0,0,4.3-31.841a.458.458,0,0,1-.175.3.465.465,0,0,1-.28.1H3.01a.356.356,0,0,1-.262-.1.336.336,0,0,1-.1-.245,4.088,4.088,0,0,1,.5-1.793A3.675,3.675,0,0,1,4.515-35a4.179,4.179,0,0,1,2.2-.551,3.919,3.919,0,0,1,2.948,1.024,3.588,3.588,0,0,1,.989,2.6,3.766,3.766,0,0,1-.534,1.986,8.108,8.108,0,0,1-1.671,1.863L5-24.579h5.512a.4.4,0,0,1,.3.1.4.4,0,0,1,.1.3v.665a.391.391,0,0,1-.114.289.391.391,0,0,1-.289.114Z" transform="translate(8.949 37.704)" fill="#d8d8d8"/></g><path d="M0,6.826V.534A.533.533,0,0,1,.534,0H6.826V1.067H1.067v5.76Z" fill="#d8d8d8"/><path d="M0,6.826V.534A.533.533,0,0,1,.534,0H6.826V1.067H1.067v5.76Z" transform="translate(109.6 32) rotate(180)" fill="#d8d8d8"/><path d="M5.7-12.156a4.018,4.018,0,0,1-1.772-.363A3.528,3.528,0,0,1,2.695-13.5a4.331,4.331,0,0,1-.734-1.355,4.715,4.715,0,0,1-.245-1.484v-.273a4.806,4.806,0,0,1,.245-1.514,4.078,4.078,0,0,1,.741-1.34,3.7,3.7,0,0,1,1.238-.962,3.9,3.9,0,0,1,1.735-.363,4.1,4.1,0,0,1,1.787.379,3.212,3.212,0,0,1,1.275,1.068,3.124,3.124,0,0,1,.541,1.628H7.913a1.992,1.992,0,0,0-.682-1.264,2.277,2.277,0,0,0-1.557-.507,2.4,2.4,0,0,0-1.408.394,2.391,2.391,0,0,0-.845,1.075,4.011,4.011,0,0,0-.282,1.545,3.985,3.985,0,0,0,.282,1.522,2.415,2.415,0,0,0,.852,1.09,2.428,2.428,0,0,0,1.431.4A2.578,2.578,0,0,0,6.861-13.7a2.1,2.1,0,0,0,.786-.651A1.92,1.92,0,0,0,8-15.276H9.366a3.02,3.02,0,0,1-.541,1.651,3.338,3.338,0,0,1-1.3,1.083A4.16,4.16,0,0,1,5.7-12.156Zm9.385,0a4.3,4.3,0,0,1-1.824-.363,4.065,4.065,0,0,1-1.327-.962,4.1,4.1,0,0,1-.815-1.34,4.336,4.336,0,0,1-.274-1.514v-.273a4.3,4.3,0,0,1,.282-1.522,4.124,4.124,0,0,1,.83-1.348,4.056,4.056,0,0,1,1.334-.954,4.305,4.305,0,0,1,1.794-.356,4.305,4.305,0,0,1,1.794.356,4.056,4.056,0,0,1,1.334.954,4.124,4.124,0,0,1,.83,1.348,4.3,4.3,0,0,1,.282,1.522v.273a4.335,4.335,0,0,1-.274,1.514,4.1,4.1,0,0,1-.815,1.34,4.065,4.065,0,0,1-1.327.962A4.3,4.3,0,0,1,15.089-12.156Zm0-1.3a2.77,2.77,0,0,0,1.52-.4,2.627,2.627,0,0,0,.964-1.083,3.432,3.432,0,0,0,.334-1.529,3.4,3.4,0,0,0-.341-1.545,2.627,2.627,0,0,0-.971-1.075,2.782,2.782,0,0,0-1.5-.394,2.792,2.792,0,0,0-1.5.394,2.61,2.61,0,0,0-.979,1.075,3.4,3.4,0,0,0-.341,1.545,3.432,3.432,0,0,0,.334,1.529,2.627,2.627,0,0,0,.964,1.083A2.77,2.77,0,0,0,15.089-13.459Zm6.523,1.03v-8.086h1.127v3.468h-.178a5.633,5.633,0,0,1,.319-2.022,2.56,2.56,0,0,1,.971-1.257,2.923,2.923,0,0,1,1.646-.432h.059a2.6,2.6,0,0,1,2.216.954,4.518,4.518,0,0,1,.719,2.756v4.618H27.068V-17.35a2.147,2.147,0,0,0-.519-1.507,1.832,1.832,0,0,0-1.423-.568,2.022,2.022,0,0,0-1.512.591,2.154,2.154,0,0,0-.578,1.575v4.83Zm13.032.273a4.018,4.018,0,0,1-1.772-.363,3.528,3.528,0,0,1-1.238-.977,4.331,4.331,0,0,1-.734-1.355,4.715,4.715,0,0,1-.245-1.484v-.273a4.806,4.806,0,0,1,.245-1.514,4.077,4.077,0,0,1,.741-1.34,3.7,3.7,0,0,1,1.238-.962,3.9,3.9,0,0,1,1.735-.363,4.1,4.1,0,0,1,1.787.379,3.212,3.212,0,0,1,1.275,1.068,3.124,3.124,0,0,1,.541,1.628H36.854a1.992,1.992,0,0,0-.682-1.264,2.277,2.277,0,0,0-1.557-.507,2.4,2.4,0,0,0-1.408.394,2.391,2.391,0,0,0-.845,1.075,4.011,4.011,0,0,0-.282,1.545,3.985,3.985,0,0,0,.282,1.522,2.415,2.415,0,0,0,.852,1.09,2.428,2.428,0,0,0,1.431.4A2.578,2.578,0,0,0,35.8-13.7a2.1,2.1,0,0,0,.786-.651,1.921,1.921,0,0,0,.356-.924h1.364a3.02,3.02,0,0,1-.541,1.651,3.338,3.338,0,0,1-1.3,1.083A4.16,4.16,0,0,1,34.645-12.156Zm9.1,0a4.1,4.1,0,0,1-1.794-.363,3.445,3.445,0,0,1-1.231-.962,4.078,4.078,0,0,1-.7-1.34,5.09,5.09,0,0,1-.23-1.514v-.273a5.14,5.14,0,0,1,.23-1.529,4.078,4.078,0,0,1,.7-1.34,3.42,3.42,0,0,1,1.208-.954,3.919,3.919,0,0,1,1.727-.356,3.712,3.712,0,0,1,2.128.568,3.49,3.49,0,0,1,1.245,1.461,4.541,4.541,0,0,1,.408,1.908v.651H40.412v-1.09H46.4l-.326.591a3.8,3.8,0,0,0-.267-1.492,2.124,2.124,0,0,0-.8-.977,2.422,2.422,0,0,0-1.349-.348,2.366,2.366,0,0,0-1.4.394,2.362,2.362,0,0,0-.83,1.075,4.2,4.2,0,0,0-.274,1.575,4.166,4.166,0,0,0,.274,1.552,2.35,2.35,0,0,0,.852,1.09,2.517,2.517,0,0,0,1.468.4,2.53,2.53,0,0,0,1.52-.424,1.646,1.646,0,0,0,.7-.984h1.334a3.239,3.239,0,0,1-.652,1.439,3.151,3.151,0,0,1-1.231.924A4.211,4.211,0,0,1,43.748-12.156ZM49.6-9.4V-20.515h1.127v3.5l-.267-.03A4.865,4.865,0,0,1,51-19.175a2.986,2.986,0,0,1,1.223-1.219,3.51,3.51,0,0,1,1.646-.394,3.612,3.612,0,0,1,1.564.333,3.679,3.679,0,0,1,1.208.909,4.035,4.035,0,0,1,.771,1.333,4.793,4.793,0,0,1,.267,1.605v.273a4.565,4.565,0,0,1-.282,1.605,4.176,4.176,0,0,1-.793,1.333,3.761,3.761,0,0,1-1.216.909,3.577,3.577,0,0,1-1.549.333,3.621,3.621,0,0,1-1.616-.379,3.052,3.052,0,0,1-1.275-1.227,4.846,4.846,0,0,1-.578-2.226l.652,1.211V-9.4Zm4.018-4.028a2.5,2.5,0,0,0,1.394-.386,2.552,2.552,0,0,0,.919-1.075,3.657,3.657,0,0,0,.326-1.582,3.644,3.644,0,0,0-.326-1.59,2.561,2.561,0,0,0-.919-1.068,2.5,2.5,0,0,0-1.394-.386,2.751,2.751,0,0,0-1.32.326,2.467,2.467,0,0,0-.971.939,2.847,2.847,0,0,0-.363,1.476v.7a2.624,2.624,0,0,0,.371,1.423,2.513,2.513,0,0,0,.979.909A2.773,2.773,0,0,0,53.622-13.428Zm9.429,1.09a4.133,4.133,0,0,1-1.534-.257,1.927,1.927,0,0,1-.993-.886,3.524,3.524,0,0,1-.348-1.7v-7.783h1.364V-15A1.379,1.379,0,0,0,61.887-14a1.317,1.317,0,0,0,.986.356h1.394v1.3Zm-4.24-7.087v-1.09h5.456v1.09Z" transform="translate(38.468 34.583)" fill="#78d0d3"/></svg>